<svg version="1.1" id="Layer_1" xmlns="http://www.w3.org/2000/svg" xmlns:xlink="http://www.w3.org/1999/xlink" x="0px" y="0px"
	 width="100%" viewBox="0 0 300 300" enable-background="new 0 0 300 300" xml:space="preserve">
<path fill="#000000" opacity="1.000000" stroke="none" 
	d="
M204.000000,301.000000 
	C136.000015,301.000000 68.500023,301.000000 1.000027,301.000000 
	C1.000018,201.000031 1.000018,101.000061 1.000009,1.000067 
	C100.999947,1.000045 200.999893,1.000045 300.999878,1.000022 
	C300.999939,100.999939 300.999939,200.999878 300.999969,300.999908 
	C268.833344,301.000000 236.666672,301.000000 204.000000,301.000000 
M264.555695,193.908310 
	C265.702850,190.200684 266.942291,186.518692 267.981201,182.780991 
	C272.400055,166.883270 273.210632,150.754135 271.006653,134.430237 
	C268.630280,116.829605 262.623596,100.493217 252.974869,85.681244 
	C245.578979,74.327644 236.493454,64.487793 225.715607,55.926956 
	C207.047363,41.098808 185.868347,32.788403 162.573761,30.240904 
	C149.173553,28.775455 135.558456,29.705198 122.265366,33.005840 
	C108.718079,36.369606 95.810356,41.671631 84.517090,49.539200 
	C75.000893,56.168762 66.611176,64.652390 58.589264,73.134735 
	C46.264187,86.167244 38.867676,102.121002 33.994972,119.273918 
	C29.528843,134.995590 29.004929,150.929901 30.941748,167.105652 
	C32.843399,182.987686 38.056644,197.677124 46.034924,211.394913 
	C53.164188,223.652908 62.004681,234.488541 73.004616,243.646606 
	C84.060104,252.850922 96.199486,259.954468 109.609352,264.987640 
	C128.954666,272.248627 148.972214,273.872528 169.221420,270.818665 
	C177.734406,269.534760 185.949127,266.273163 194.993164,263.985474 
	C196.088852,264.676483 197.154327,265.421814 198.284729,266.050354 
	C216.219788,276.023041 237.581726,274.010712 253.316803,260.961182 
	C265.439789,250.907288 272.243103,237.933685 272.143402,221.543030 
	C272.082092,211.466431 268.572601,202.829636 264.555695,193.908310 
z"/>
<path fill="#F5AC38" opacity="1.000000" stroke="none" 
	d="
M194.299438,263.910614 
	C185.949127,266.273163 177.734406,269.534760 169.221420,270.818665 
	C148.972214,273.872528 128.954666,272.248627 109.609352,264.987640 
	C96.199486,259.954468 84.060104,252.850922 73.004616,243.646606 
	C62.004681,234.488541 53.164188,223.652908 46.034924,211.394913 
	C38.056644,197.677124 32.843399,182.987686 30.941748,167.105652 
	C29.004929,150.929901 29.528843,134.995590 33.994972,119.273918 
	C38.867676,102.121002 46.264187,86.167244 58.589264,73.134735 
	C66.611176,64.652390 75.000893,56.168762 84.517090,49.539200 
	C95.810356,41.671631 108.718079,36.369606 122.265366,33.005840 
	C135.558456,29.705198 149.173553,28.775455 162.573761,30.240904 
	C185.868347,32.788403 207.047363,41.098808 225.715607,55.926956 
	C236.493454,64.487793 245.578979,74.327644 252.974869,85.681244 
	C262.623596,100.493217 268.630280,116.829605 271.006653,134.430237 
	C273.210632,150.754135 272.400055,166.883270 267.981201,182.780991 
	C266.942291,186.518692 265.702850,190.200684 263.905457,193.988220 
	C255.235840,183.365707 244.692169,176.460434 231.790619,172.664703 
	C231.813248,168.102676 231.813248,164.012070 231.813248,159.782242 
	C229.999664,159.599915 228.865021,159.415939 227.725952,159.382446 
	C218.904236,159.123032 218.917297,159.131882 218.824310,150.469391 
	C218.742554,142.854446 216.890167,142.791489 226.631073,143.038406 
	C230.372681,143.133240 232.042526,142.212753 231.910309,138.064529 
	C231.503494,125.299393 233.541748,127.637993 220.932373,127.376450 
	C220.266541,127.362633 219.592667,127.308228 218.935394,127.384109 
	C216.011810,127.721634 214.528244,126.372360 213.306808,123.693832 
	C202.864426,100.794357 184.476974,87.700096 160.010361,85.345924 
	C139.210266,83.344543 118.113869,84.445168 97.149727,84.102936 
	C93.929893,84.050377 93.822182,85.981911 93.829887,88.341629 
	C93.865242,99.165672 93.847015,109.989914 93.841537,120.814079 
	C93.838165,127.474686 93.832932,127.478195 87.421501,127.489563 
	C83.476624,127.496559 79.531723,127.490860 75.092003,127.490860 
	C75.092003,130.880676 75.090805,133.513641 75.092239,136.146606 
	C75.095970,143.033249 75.099541,142.899857 82.202301,143.065796 
	C95.964890,143.387360 93.533417,140.092880 93.875938,155.432144 
	C93.943832,158.472351 92.789818,159.588242 89.786705,159.489792 
	C85.023628,159.333664 80.251678,159.448166 75.629601,159.448166 
	C73.540489,174.966309 73.540489,174.966324 87.786110,174.995499 
	C88.119164,174.996170 88.458305,175.037231 88.784332,174.989395 
	C92.610947,174.427933 94.031387,175.828125 93.934212,179.902237 
	C93.668236,191.053116 93.962852,202.216522 93.773560,213.370529 
	C93.713463,216.911697 94.922050,217.918640 98.369286,217.882980 
	C113.354996,217.727875 128.363266,218.287415 143.323456,217.650757 
	C153.219513,217.229630 163.047958,215.219223 172.953156,214.391327 
	C172.998398,217.016861 173.094528,219.176590 172.980255,221.325134 
	C172.165024,236.653564 178.376816,248.932892 189.307785,259.187286 
	C190.978439,260.754517 192.635895,262.335815 194.299438,263.910614 
z"/>
<path fill="#0353FF" opacity="1.000000" stroke="none" 
	d="
M194.646301,263.948059 
	C192.635895,262.335815 190.978439,260.754517 189.307785,259.187286 
	C178.376816,248.932892 172.165024,236.653564 172.980255,221.325134 
	C173.094528,219.176590 172.998398,217.016861 173.090012,214.037018 
	C175.107285,207.793900 177.034180,202.376083 178.938095,196.975372 
	C178.915115,196.992477 178.949554,197.038773 179.165726,196.941879 
	C179.689713,196.656555 179.812515,196.384598 179.950195,195.745911 
	C185.438095,190.222549 190.726120,184.982391 196.415100,179.584198 
	C207.591797,172.467941 219.624680,172.495285 231.767975,173.136124 
	C244.692169,176.460434 255.235840,183.365707 263.571014,194.213837 
	C268.572601,202.829636 272.082092,211.466431 272.143402,221.543030 
	C272.243103,237.933685 265.439789,250.907288 253.316803,260.961182 
	C237.581726,274.010712 216.219788,276.023041 198.284729,266.050354 
	C197.154327,265.421814 196.088852,264.676483 194.646301,263.948059 
M187.210922,225.956589 
	C189.415176,237.267120 193.870270,246.749435 204.865036,252.586105 
	C220.434219,260.851166 240.537109,256.424500 250.465805,242.104401 
	C265.048553,221.071838 253.271912,190.180084 224.920807,187.308426 
	C214.156815,186.218170 204.642838,190.041061 197.042267,197.020508 
	C191.023178,202.547714 188.168167,210.498352 187.329712,219.539993 
	C188.974854,220.026886 190.614029,220.910019 192.266113,220.934845 
	C201.421356,221.072449 210.579742,221.001312 219.737045,221.001526 
	C225.244492,221.001663 230.751938,221.001556 236.259384,221.001556 
	C223.120163,220.029602 209.997910,220.068390 196.876282,219.996857 
	C194.252930,219.982559 191.631866,219.547409 189.930054,219.125046 
	C206.189651,219.125046 222.449265,219.125046 238.993835,219.125046 
	C238.872681,221.363129 238.786591,222.953217 238.691391,224.712036 
	C221.900681,224.712036 205.452698,224.712036 189.736038,224.336594 
	C205.258957,224.336594 220.781876,224.336594 236.304794,224.336594 
	C236.303513,223.897034 236.302231,223.457474 236.300949,223.017914 
	C221.023087,223.017914 205.744812,222.971161 190.468262,223.112823 
	C189.330658,223.123367 188.205597,224.484879 187.210922,225.956589 
z"/>
<path fill="#FEFCF8" opacity="1.000000" stroke="none" 
	d="
M178.961090,196.958267 
	C177.034180,202.376083 175.107285,207.793900 173.043518,213.566040 
	C163.047958,215.219223 153.219513,217.229630 143.323456,217.650757 
	C128.363266,218.287415 113.354996,217.727875 98.369286,217.882980 
	C94.922050,217.918640 93.713463,216.911697 93.773560,213.370529 
	C93.962852,202.216522 93.668236,191.053116 93.934212,179.902237 
	C94.031387,175.828125 92.610947,174.427933 88.784332,174.989395 
	C88.458305,175.037231 88.119164,174.996170 87.786110,174.995499 
	C73.540489,174.966324 73.540489,174.966309 75.629601,159.448166 
	C80.251678,159.448166 85.023628,159.333664 89.786705,159.489792 
	C92.789818,159.588242 93.943832,158.472351 93.875938,155.432144 
	C93.533417,140.092880 95.964890,143.387360 82.202301,143.065796 
	C75.099541,142.899857 75.095970,143.033249 75.092239,136.146606 
	C75.090805,133.513641 75.092003,130.880676 75.092003,127.490860 
	C79.531723,127.490860 83.476624,127.496559 87.421501,127.489563 
	C93.832932,127.478195 93.838165,127.474686 93.841537,120.814079 
	C93.847015,109.989914 93.865242,99.165672 93.829887,88.341629 
	C93.822182,85.981911 93.929893,84.050377 97.149727,84.102936 
	C118.113869,84.445168 139.210266,83.344543 160.010361,85.345924 
	C184.476974,87.700096 202.864426,100.794357 213.306808,123.693832 
	C214.528244,126.372360 216.011810,127.721634 218.935394,127.384109 
	C219.592667,127.308228 220.266541,127.362633 220.932373,127.376450 
	C233.541748,127.637993 231.503494,125.299393 231.910309,138.064529 
	C232.042526,142.212753 230.372681,143.133240 226.631073,143.038406 
	C216.890167,142.791489 218.742554,142.854446 218.824310,150.469391 
	C218.917297,159.131882 218.904236,159.123032 227.725952,159.382446 
	C228.865021,159.415939 229.999664,159.599915 231.813248,159.782242 
	C231.813248,164.012070 231.813248,168.102676 231.790619,172.664703 
	C219.624680,172.495285 207.591797,172.467941 196.597687,179.101318 
	C197.879517,175.868332 196.771103,174.978516 193.758163,174.985001 
	C166.761383,175.043137 139.764313,175.066620 112.767746,174.976471 
	C109.510330,174.965591 108.878036,176.418060 108.926468,179.224411 
	C109.044327,186.054916 109.147209,192.895737 108.890312,199.718643 
	C108.749969,203.445831 110.359779,204.139084 113.630096,204.102844 
	C125.960472,203.966187 138.341690,204.712433 150.607941,203.815765 
	C158.599182,203.231613 166.430725,200.404617 174.319061,198.520645 
	C175.900574,198.142929 177.415482,197.486282 178.961090,196.958267 
M109.471664,99.219421 
	C109.300842,107.181465 109.330849,115.154991 108.876991,123.100861 
	C108.639503,127.258728 110.281982,128.066864 114.048752,128.047241 
	C140.180878,127.911217 166.314041,127.981636 192.446854,127.960320 
	C193.988708,127.959061 195.530380,127.737053 197.303604,127.599854 
	C197.015732,126.302139 196.984100,125.619965 196.712570,125.052589 
	C196.211929,124.006447 195.618225,122.996300 194.980392,122.025642 
	C186.328720,108.859512 174.095047,100.536819 158.565262,99.299828 
	C142.534760,98.022949 126.339241,98.817558 109.471664,99.219421 
M159.499878,159.375229 
	C170.489944,159.375137 181.481995,159.505310 192.469513,159.337906 
	C203.225052,159.174057 202.622284,161.949738 202.878815,148.944382 
	C202.975632,144.035782 201.148849,142.831833 196.465591,142.869965 
	C170.990295,143.077438 145.512405,142.968628 120.035416,142.968674 
	C108.786903,142.968689 108.963768,142.970139 108.867821,154.424072 
	C108.834000,158.461685 110.206451,159.496887 114.040924,159.449677 
	C128.858612,159.267166 143.679916,159.375626 159.499878,159.375229 
z"/>
<path fill="#FCFDFF" opacity="1.000000" stroke="none" 
	d="
M189.004700,224.712036 
	C205.452698,224.712036 221.900681,224.712036 238.691391,224.712036 
	C238.786591,222.953217 238.872681,221.363129 238.993835,219.125046 
	C222.449265,219.125046 206.189651,219.125046 189.149139,219.121246 
	C187.936508,219.006470 187.504761,218.895493 187.073029,218.784515 
	C188.168167,210.498352 191.023178,202.547714 197.042267,197.020508 
	C204.642838,190.041061 214.156815,186.218170 224.920807,187.308426 
	C253.271912,190.180084 265.048553,221.071838 250.465805,242.104401 
	C240.537109,256.424500 220.434219,260.851166 204.865036,252.586105 
	C193.870270,246.749435 189.415176,237.267120 187.461456,225.490814 
	C188.142899,224.920700 188.573807,224.816360 189.004700,224.712036 
z"/>
<path fill="#F5AD3A" opacity="1.000000" stroke="none" 
	d="
M178.938110,196.975372 
	C177.415482,197.486282 175.900574,198.142929 174.319061,198.520645 
	C166.430725,200.404617 158.599182,203.231613 150.607941,203.815765 
	C138.341690,204.712433 125.960472,203.966187 113.630096,204.102844 
	C110.359779,204.139084 108.749969,203.445831 108.890312,199.718643 
	C109.147209,192.895737 109.044327,186.054916 108.926468,179.224411 
	C108.878036,176.418060 109.510330,174.965591 112.767746,174.976471 
	C139.764313,175.066620 166.761383,175.043137 193.758163,174.985001 
	C196.771103,174.978516 197.879517,175.868332 196.196732,179.259354 
	C190.726120,184.982391 185.438095,190.222549 179.729492,195.837952 
	C178.985428,196.399612 178.865631,196.674805 178.949554,197.038773 
	C178.949554,197.038773 178.915115,196.992477 178.938110,196.975372 
z"/>
<path fill="#003EFF" opacity="1.000000" stroke="none" 
	d="
M187.201370,219.162262 
	C187.504761,218.895493 187.936508,219.006470 188.688995,219.211884 
	C191.631866,219.547409 194.252930,219.982559 196.876282,219.996857 
	C209.997910,220.068390 223.120163,220.029602 236.259384,221.001556 
	C230.751938,221.001556 225.244492,221.001663 219.737045,221.001526 
	C210.579742,221.001312 201.421356,221.072449 192.266113,220.934845 
	C190.614029,220.910019 188.974854,220.026886 187.201370,219.162262 
z"/>
<path fill="#003EFF" opacity="1.000000" stroke="none" 
	d="
M189.370361,224.524323 
	C188.573807,224.816360 188.142899,224.920700 187.393372,225.121704 
	C188.205597,224.484879 189.330658,223.123367 190.468262,223.112823 
	C205.744812,222.971161 221.023087,223.017914 236.300949,223.017914 
	C236.302231,223.457474 236.303513,223.897034 236.304794,224.336594 
	C220.781876,224.336594 205.258957,224.336594 189.370361,224.524323 
z"/>
<path fill="#FEFCF8" opacity="1.000000" stroke="none" 
	d="
M179.165726,196.941879 
	C178.865631,196.674805 178.985428,196.399612 179.529633,196.121170 
	C179.812515,196.384598 179.689713,196.656555 179.165726,196.941879 
z"/>
<path fill="#F5AD3B" opacity="1.000000" stroke="none" 
	d="
M109.843796,98.962669 
	C126.339241,98.817558 142.534760,98.022949 158.565262,99.299828 
	C174.095047,100.536819 186.328720,108.859512 194.980392,122.025642 
	C195.618225,122.996300 196.211929,124.006447 196.712570,125.052589 
	C196.984100,125.619965 197.015732,126.302139 197.303604,127.599854 
	C195.530380,127.737053 193.988708,127.959061 192.446854,127.960320 
	C166.314041,127.981636 140.180878,127.911217 114.048752,128.047241 
	C110.281982,128.066864 108.639503,127.258728 108.876991,123.100861 
	C109.330849,115.154991 109.300842,107.181465 109.843796,98.962669 
z"/>
<path fill="#F5AD3A" opacity="1.000000" stroke="none" 
	d="
M158.999878,159.375458 
	C143.679916,159.375626 128.858612,159.267166 114.040924,159.449677 
	C110.206451,159.496887 108.834000,158.461685 108.867821,154.424072 
	C108.963768,142.970139 108.786903,142.968689 120.035416,142.968674 
	C145.512405,142.968628 170.990295,143.077438 196.465591,142.869965 
	C201.148849,142.831833 202.975632,144.035782 202.878815,148.944382 
	C202.622284,161.949738 203.225052,159.174057 192.469513,159.337906 
	C181.481995,159.505310 170.489944,159.375137 158.999878,159.375458 
z"/>
</svg>