<svg version="1.1" id="Layer_1" xmlns="http://www.w3.org/2000/svg" xmlns:xlink="http://www.w3.org/1999/xlink" x="0px" y="0px"
	 width="100%" viewBox="0 0 64 64" enable-background="new 0 0 64 64" xml:space="preserve">
<path fill="#000000" opacity="1.000000" stroke="none" 
	d="
M65.000000,23.999840 
	C65.000000,37.999893 65.000000,51.499889 65.000000,64.999908 
	C43.666710,64.999939 22.333418,64.999939 1.000096,64.999969 
	C1.000064,43.666714 1.000064,22.333429 1.000032,1.000107 
	C22.333281,1.000072 43.666561,1.000072 64.999924,1.000036 
	C65.000000,8.499928 65.000000,15.999856 65.000000,23.999840 
M8.276281,17.205139 
	C1.843508,26.641880 1.403048,39.142105 7.623621,47.176128 
	C11.787449,51.458244 15.215936,57.176163 20.251923,59.755329 
	C35.839314,67.738365 50.119137,61.182419 59.697380,46.819439 
	C64.049629,36.438671 64.545395,26.385195 56.868908,16.380728 
	C55.692822,15.205110 54.576214,13.962051 53.331520,12.864216 
	C39.577175,0.732756 19.861755,2.469577 8.276281,17.205139 
z"/>
<path fill="#1752FF" opacity="1.000000" stroke="none" 
	d="
M59.000015,47.166653 
	C50.119137,61.182419 35.839314,67.738365 20.251923,59.755329 
	C15.215936,57.176163 11.787449,51.458244 7.310723,46.609695 
	C5.441516,40.143047 2.861045,34.339378 5.018595,28.051167 
	C6.272120,24.397745 7.668091,20.793198 8.999965,17.166658 
	C19.861755,2.469577 39.577175,0.732756 53.331520,12.864216 
	C54.576214,13.962051 55.692822,15.205110 56.952538,17.063103 
	C58.512150,22.840826 60.817886,27.872276 61.216686,33.050583 
	C61.572571,37.671627 59.821384,42.454945 59.000015,47.166653 
M29.332758,12.254256 
	C28.211046,12.797647 27.089336,13.341039 25.276766,13.986669 
	C24.169716,14.620683 23.062664,15.254696 21.319836,15.995578 
	C20.532282,16.628231 19.744726,17.260887 18.345543,18.176418 
	C17.190372,19.769405 16.035204,21.362392 14.292509,23.264200 
	C13.847024,24.472389 13.401539,25.680576 12.278663,27.298225 
	C12.517343,29.255417 12.756023,31.212608 12.853744,33.815075 
	C12.570600,34.878170 12.287455,35.941269 12.121548,37.629562 
	C12.418953,38.422218 12.716358,39.214878 13.131861,40.648529 
	C13.749833,41.766174 14.367805,42.883816 15.143747,44.657425 
	C16.416088,45.782639 17.688427,46.907856 19.125265,48.667839 
	C20.402391,49.786785 21.679520,50.905731 23.474939,52.512657 
	C25.305511,53.035305 27.136082,53.557957 29.569750,54.512684 
	C31.056406,54.628078 32.543060,54.743473 34.753147,54.888351 
	C36.512386,54.290684 38.271629,53.693016 40.705345,53.014538 
	C41.809948,52.375504 42.914551,51.736465 44.679432,50.945557 
	C48.231510,49.852203 48.579155,47.159569 48.853024,44.009949 
	C51.677078,44.148273 52.804241,42.606422 53.180557,39.357307 
	C53.397648,38.233208 53.614738,37.109112 53.937283,35.155441 
	C53.901791,33.764870 53.866299,32.374298 53.927048,30.246799 
	C53.306595,28.465456 52.686142,26.684113 51.973831,24.227301 
	C51.000397,22.781572 50.026962,21.335842 48.778954,19.338373 
	C47.715549,18.388123 46.652142,17.437874 45.085548,16.107485 
	C43.913883,15.551102 42.742214,14.994718 40.980274,14.066023 
	C39.354889,13.695424 37.729504,13.324825 35.631897,12.301142 
	C33.750969,12.257206 31.870043,12.213270 29.332758,12.254256 
z"/>
<path fill="#FFFFFF" opacity="1.000000" stroke="none" 
	d="
M59.348698,46.993046 
	C59.821384,42.454945 61.572571,37.671627 61.216686,33.050583 
	C60.817886,27.872276 58.512150,22.840826 57.101410,17.372746 
	C64.545395,26.385195 64.049629,36.438671 59.348698,46.993046 
z"/>
<path fill="#FFFFFF" opacity="1.000000" stroke="none" 
	d="
M8.638123,17.185898 
	C7.668091,20.793198 6.272120,24.397745 5.018595,28.051167 
	C2.861045,34.339378 5.441516,40.143047 6.998894,46.438301 
	C1.403048,39.142105 1.843508,26.641880 8.638123,17.185898 
z"/>
<path fill="#6C94FF" opacity="1.000000" stroke="none" 
	d="
M48.115021,44.061783 
	C48.579155,47.159569 48.231510,49.852203 44.277542,50.669769 
	C42.244404,47.889317 40.613159,45.384659 39.129387,42.616066 
	C40.178207,41.539574 41.079552,40.727009 42.209667,40.159203 
	C44.330635,41.623234 46.222828,42.842510 48.115021,44.061783 
z"/>
<path fill="#3B6FFF" opacity="1.000000" stroke="none" 
	d="
M22.956648,52.024673 
	C21.679520,50.905731 20.402391,49.786785 19.224998,48.068344 
	C21.233757,45.273636 23.142780,43.078419 25.354849,41.025093 
	C26.478176,42.434071 27.298456,43.701164 27.834261,45.155708 
	C26.018740,47.570332 24.487694,49.797501 22.956648,52.024673 
z"/>
<path fill="#9FB9FF" opacity="1.000000" stroke="none" 
	d="
M49.053532,19.890112 
	C50.026962,21.335842 51.000397,22.781572 51.766300,24.810951 
	C48.355457,26.928991 45.152142,28.463379 41.762978,29.789471 
	C41.375610,29.063660 41.174099,28.546144 41.153297,27.744469 
	C43.907181,24.936911 46.480358,22.413511 49.053532,19.890112 
z"/>
<path fill="#E6EDFF" opacity="1.000000" stroke="none" 
	d="
M14.880035,22.955379 
	C16.035204,21.362392 17.190372,19.769405 18.826752,18.324358 
	C21.584505,20.678934 23.861050,22.885569 26.094776,25.408031 
	C25.708874,26.489868 25.365789,27.255875 24.681339,27.936954 
	C21.186665,26.219810 18.033350,24.587595 14.880035,22.955379 
z"/>
<path fill="#A9C0FF" opacity="1.000000" stroke="none" 
	d="
M48.916245,19.614243 
	C46.480358,22.413511 43.907181,24.936911 40.899353,27.562548 
	C39.973415,26.778847 39.482136,25.892910 39.171787,24.722500 
	C41.431393,21.787893 43.510063,19.137760 45.588734,16.487625 
	C46.652142,17.437874 47.715549,18.388123 48.916245,19.614243 
z"/>
<path fill="#F1F4FF" opacity="1.000000" stroke="none" 
	d="
M14.586273,23.109791 
	C18.033350,24.587595 21.186665,26.219810 24.617771,28.245384 
	C24.595278,29.422701 24.294994,30.206663 23.628897,30.915817 
	C19.827406,29.523594 16.391731,28.206179 12.956055,26.888765 
	C13.401539,25.680576 13.847024,24.472389 14.586273,23.109791 
z"/>
<path fill="#95B1FF" opacity="1.000000" stroke="none" 
	d="
M41.948830,29.997768 
	C45.152142,28.463379 48.355457,26.928991 51.812229,25.148685 
	C52.686142,26.684113 53.306595,28.465456 53.471893,30.631239 
	C49.665581,31.344044 46.314426,31.672409 42.767410,31.793198 
	C42.363979,31.056337 42.156403,30.527052 41.948830,29.997768 
z"/>
<path fill="#83A4FF" opacity="1.000000" stroke="none" 
	d="
M53.831825,35.985008 
	C53.614738,37.109112 53.397648,38.233208 52.631104,39.640957 
	C49.004597,39.270756 45.927540,38.616901 42.644814,37.730515 
	C41.633831,37.291565 40.828522,37.085152 40.197449,36.640270 
	C41.253880,35.601490 42.136070,34.801178 43.403282,34.083176 
	C47.136143,34.771996 50.483982,35.378502 53.831825,35.985008 
z"/>
<path fill="#F9FBFF" opacity="1.000000" stroke="none" 
	d="
M12.617359,27.093494 
	C16.391731,28.206179 19.827406,29.523594 23.506783,31.178801 
	C23.510553,32.044033 23.270626,32.571468 23.008289,33.342949 
	C22.985882,33.586990 22.983536,34.078114 22.603287,33.909462 
	C19.146925,33.550472 16.070814,33.360138 12.994703,33.169800 
	C12.756023,31.212608 12.517343,29.255417 12.617359,27.093494 
z"/>
<path fill="#7B9EFF" opacity="1.000000" stroke="none" 
	d="
M42.850483,37.963047 
	C45.927540,38.616901 49.004597,39.270756 52.460674,39.954109 
	C52.804241,42.606422 51.677078,44.148273 48.484024,44.035866 
	C46.222828,42.842510 44.330635,41.623234 42.253296,39.887955 
	C42.328930,38.902313 42.589706,38.432682 42.850483,37.963047 
z"/>
<path fill="#2F66FF" opacity="1.000000" stroke="none" 
	d="
M25.051802,40.883205 
	C23.142780,43.078419 21.233757,45.273636 19.142750,47.750961 
	C17.688427,46.907856 16.416088,45.782639 15.373621,44.179123 
	C18.441549,42.123058 21.279604,40.545296 24.387606,39.083511 
	C24.788969,39.760723 24.920385,40.321964 25.051802,40.883205 
z"/>
<path fill="#4576FF" opacity="1.000000" stroke="none" 
	d="
M23.215794,52.268665 
	C24.487694,49.797501 26.018740,47.570332 28.103493,45.259720 
	C29.382833,46.028366 30.108465,46.880455 30.658062,48.175522 
	C29.976904,50.439205 29.471777,52.259907 28.966652,54.080608 
	C27.136082,53.557957 25.305511,53.035305 23.215794,52.268665 
z"/>
<path fill="#B3C7FF" opacity="1.000000" stroke="none" 
	d="
M45.337143,16.297554 
	C43.510063,19.137760 41.431393,21.787893 38.916054,24.543528 
	C37.985291,23.766260 37.491196,22.883492 37.180450,21.701698 
	C38.766045,19.081228 40.168297,16.759781 41.570549,14.438334 
	C42.742214,14.994718 43.913883,15.551102 45.337143,16.297554 
z"/>
<path fill="#628CFF" opacity="1.000000" stroke="none" 
	d="
M38.981915,42.879997 
	C40.613159,45.384659 42.244404,47.889317 43.947399,50.745705 
	C42.914551,51.736465 41.809948,52.375504 40.224384,52.725868 
	C38.821419,50.251038 37.899410,48.064877 37.110504,45.606422 
	C37.823044,44.516083 38.402481,43.698040 38.981915,42.879997 
z"/>
<path fill="#BCCEFF" opacity="1.000000" stroke="none" 
	d="
M41.275414,14.252178 
	C40.168297,16.759781 38.766045,19.081228 36.951080,21.469940 
	C35.692329,20.026745 34.846298,18.516281 34.136185,16.704346 
	C34.882778,15.253324 35.493446,14.103775 36.104118,12.954226 
	C37.729504,13.324825 39.354889,13.695424 41.275414,14.252178 
z"/>
<path fill="#8CAAFF" opacity="1.000000" stroke="none" 
	d="
M53.884552,35.570225 
	C50.483982,35.378502 47.136143,34.771996 43.394066,33.828239 
	C42.995205,33.321003 42.990570,33.151016 42.984371,32.735867 
	C42.982811,32.490707 42.963272,32.000774 42.963272,32.000774 
	C46.314426,31.672409 49.665581,31.344044 53.423767,30.999702 
	C53.866299,32.374298 53.901791,33.764870 53.884552,35.570225 
z"/>
<path fill="#5985FF" opacity="1.000000" stroke="none" 
	d="
M36.977402,45.878716 
	C37.899410,48.064877 38.821419,50.251038 39.887146,52.766273 
	C38.271629,53.693016 36.512386,54.290684 34.383823,54.461887 
	C34.001785,52.651600 33.989075,51.267780 34.113972,49.597599 
	C35.160191,48.167065 36.068794,47.022892 36.977402,45.878716 
z"/>
<path fill="#215CFF" opacity="1.000000" stroke="none" 
	d="
M13.013763,40.007534 
	C12.716358,39.214878 12.418953,38.422218 12.471349,37.305237 
	C16.250376,36.308086 19.679602,35.635262 23.429884,34.995735 
	C24.126034,35.655567 24.501123,36.282101 24.580656,36.950584 
	C23.892561,37.317993 23.500021,37.643448 22.695168,37.976715 
	C19.193157,38.658859 16.103460,39.333195 13.013763,40.007534 
z"/>
<path fill="#2660FF" opacity="1.000000" stroke="none" 
	d="
M13.072812,40.328033 
	C16.103460,39.333195 19.193157,38.658859 22.937340,38.053413 
	C23.767101,38.404053 23.942381,38.685795 24.117659,38.967537 
	C21.279604,40.545296 18.441549,42.123058 15.294636,43.851143 
	C14.367805,42.883816 13.749833,41.766174 13.072812,40.328033 
z"/>
<path fill="#1B57FF" opacity="1.000000" stroke="none" 
	d="
M23.108826,34.962437 
	C19.679602,35.635262 16.250376,36.308086 12.412730,36.992638 
	C12.287455,35.941269 12.570600,34.878170 12.924223,33.492439 
	C16.070814,33.360138 19.146925,33.550472 22.623425,34.132141 
	C23.023815,34.523472 23.108826,34.962437 23.108826,34.962437 
z"/>
<path fill="#D7E2FF" opacity="1.000000" stroke="none" 
	d="
M21.955614,15.888709 
	C23.062664,15.254696 24.169716,14.620683 25.653580,14.315136 
	C27.020432,17.113066 28.010471,19.582531 28.815063,22.245125 
	C28.157143,22.678448 27.684668,22.918638 26.925158,22.960823 
	C25.077286,20.471449 23.516449,18.180079 21.955614,15.888709 
z"/>
<path fill="#D0DCFF" opacity="1.000000" stroke="none" 
	d="
M29.000511,22.051994 
	C28.010471,19.582531 27.020432,17.113066 25.999008,14.264016 
	C27.089336,13.341039 28.211046,12.797647 29.665678,12.612654 
	C30.378643,14.782245 30.758688,16.593437 31.047678,18.681324 
	C30.304586,19.989342 29.652548,21.020668 29.000511,22.051994 
z"/>
<path fill="#DEE7FF" opacity="1.000000" stroke="none" 
	d="
M21.637726,15.942143 
	C23.516449,18.180079 25.077286,20.471449 26.827057,23.220028 
	C26.723194,24.148891 26.430393,24.620546 26.137592,25.092201 
	C23.861050,22.885569 21.584505,20.678934 19.132568,18.182919 
	C19.744726,17.260887 20.532282,16.628231 21.637726,15.942143 
z"/>
<path fill="#C6D6FF" opacity="1.000000" stroke="none" 
	d="
M31.138731,18.404629 
	C30.758688,16.593437 30.378643,14.782245 29.993858,12.570193 
	C31.870043,12.213270 33.750969,12.257206 35.868008,12.627684 
	C35.493446,14.103775 34.882778,15.253324 33.867699,16.710358 
	C33.284328,17.022497 33.105358,17.027147 32.674637,17.156818 
	C31.994833,17.656099 31.566782,18.030363 31.138731,18.404629 
z"/>
<path fill="#4F7EFF" opacity="1.000000" stroke="none" 
	d="
M33.976360,49.883957 
	C33.989075,51.267780 34.001785,52.651600 34.022110,54.447147 
	C32.543060,54.743473 31.056406,54.628078 29.268200,54.296646 
	C29.471777,52.259907 29.976904,50.439205 30.767563,48.473007 
	C31.676756,48.838573 32.300419,49.349632 33.186493,49.896454 
	C33.624718,49.916126 33.800537,49.900043 33.976360,49.883957 
z"/>
<path fill="#C0CBF7" opacity="1.000000" stroke="none" 
	d="
M34.113972,49.597599 
	C33.800537,49.900043 33.624718,49.916126 33.206673,49.456299 
	C32.976112,46.320503 32.987774,43.660622 33.310135,40.863209 
	C35.754959,39.443363 37.889088,38.161049 40.023212,36.878738 
	C40.828522,37.085152 41.633831,37.291565 42.644814,37.730515 
	C42.589706,38.432682 42.328930,38.902313 42.024521,39.643196 
	C41.079552,40.727009 40.178207,41.539574 39.129387,42.616066 
	C38.402481,43.698040 37.823044,44.516083 37.110504,45.606422 
	C36.068794,47.022892 35.160191,48.167065 34.113972,49.597599 
z"/>
<path fill="#FFFFFF" opacity="1.000000" stroke="none" 
	d="
M32.999435,41.000740 
	C32.987774,43.660622 32.976112,46.320503 32.944267,49.420540 
	C32.300419,49.349632 31.676756,48.838573 30.943594,48.030025 
	C30.108465,46.880455 29.382833,46.028366 28.387970,45.072266 
	C27.298456,43.701164 26.478176,42.434071 25.354849,41.025093 
	C24.920385,40.321964 24.788969,39.760723 24.387606,39.083511 
	C23.942381,38.685795 23.767101,38.404053 23.349651,38.045609 
	C23.500021,37.643448 23.892561,37.317993 24.929691,37.025963 
	C28.049284,38.373119 30.524282,39.686844 32.999641,41.000286 
	C33.000000,41.000000 32.999435,41.000740 32.999435,41.000740 
z"/>
<path fill="#C0CBF7" opacity="1.000000" stroke="none" 
	d="
M32.926392,17.031799 
	C33.105358,17.027147 33.284328,17.022497 33.731781,17.011833 
	C34.846298,18.516281 35.692329,20.026745 36.767731,21.768965 
	C37.491196,22.883492 37.985291,23.766260 38.735119,24.828001 
	C39.482136,25.892910 39.973415,26.778847 40.718643,27.846706 
	C41.174099,28.546144 41.375610,29.063660 41.762978,29.789471 
	C42.156403,30.527052 42.363979,31.056337 42.767410,31.793198 
	C42.963272,32.000774 42.982811,32.490707 42.625732,32.685951 
	C39.179028,31.587362 36.089397,30.293533 33.000031,28.539291 
	C32.975658,24.396521 32.951023,20.714159 32.926392,17.031799 
z"/>
<path fill="#FFFFFF" opacity="1.000000" stroke="none" 
	d="
M32.674637,17.156818 
	C32.951023,20.714159 32.975658,24.396521 33.000145,28.539440 
	C33.000000,29.000000 32.999718,28.999767 32.676189,29.144665 
	C29.245340,30.559343 26.138018,31.829124 23.030697,33.098904 
	C23.270626,32.571468 23.510553,32.044033 23.872597,31.253609 
	C24.294994,30.206663 24.595278,29.422701 24.959133,28.330309 
	C25.365789,27.255875 25.708874,26.489868 26.094776,25.408031 
	C26.430393,24.620546 26.723194,24.148891 27.114094,23.418034 
	C27.684668,22.918638 28.157143,22.678448 28.815063,22.245125 
	C29.652548,21.020668 30.304586,19.989342 31.047678,18.681322 
	C31.566782,18.030363 31.994833,17.656099 32.674637,17.156818 
z"/>
<path fill="#8298EE" opacity="1.000000" stroke="none" 
	d="
M32.999886,28.999851 
	C36.089397,30.293533 39.179028,31.587362 42.627293,32.931107 
	C42.990570,33.151016 42.995205,33.321003 43.009048,33.745926 
	C42.136070,34.801178 41.253880,35.601490 40.197449,36.640266 
	C37.889088,38.161049 35.754959,39.443363 33.310135,40.863209 
	C32.999435,41.000740 33.000000,41.000000 32.999840,40.539604 
	C32.999691,36.386063 32.999702,32.692917 32.999718,28.999767 
	C32.999718,28.999767 33.000000,29.000000 32.999886,28.999851 
z"/>
<path fill="#C0CBF7" opacity="1.000000" stroke="none" 
	d="
M32.676189,29.144665 
	C32.999702,32.692917 32.999691,36.386063 32.999481,40.539894 
	C30.524282,39.686844 28.049284,38.373119 25.225248,36.984013 
	C24.501123,36.282101 24.126034,35.655567 23.429884,34.995735 
	C23.108826,34.962437 23.023815,34.523472 23.003675,34.300793 
	C22.983536,34.078114 22.985882,33.586990 23.008289,33.342949 
	C26.138018,31.829124 29.245340,30.559343 32.676189,29.144665 
z"/>
</svg>