<svg version="1.1" id="Layer_1" xmlns="http://www.w3.org/2000/svg" xmlns:xlink="http://www.w3.org/1999/xlink" x="0px" y="0px"
	 width="100%" viewBox="0 0 300 300" enable-background="new 0 0 300 300" xml:space="preserve">
<path fill="#000000" opacity="1.000000" stroke="none" 
	d="
M162.000000,301.000000 
	C108.000008,301.000000 54.500019,301.000000 1.000021,301.000000 
	C1.000014,201.000031 1.000014,101.000053 1.000007,1.000062 
	C100.999962,1.000041 200.999924,1.000041 300.999908,1.000021 
	C300.999939,100.999939 300.999939,200.999878 300.999969,300.999908 
	C254.833328,301.000000 208.666672,301.000000 162.000000,301.000000 
M194.597290,264.034210 
	C206.751526,272.596985 220.343704,273.899994 234.288330,270.787109 
	C256.164429,265.903748 272.100555,244.316010 272.155304,223.847168 
	C272.185333,212.620743 269.144440,202.754578 263.946198,192.556122 
	C264.606323,191.055283 265.435791,189.605011 265.901184,188.046051 
	C272.642670,165.462997 273.579437,142.435516 267.631958,119.816566 
	C259.992523,90.762878 243.782593,66.971298 218.411331,50.191994 
	C197.955414,36.663460 175.533386,29.186115 150.732437,30.019577 
	C144.462738,30.230276 138.175674,30.420300 131.940308,31.051659 
	C119.458549,32.315491 107.750160,36.446556 96.621948,41.997913 
	C81.294640,49.644020 67.960602,59.874336 57.079788,73.315346 
	C47.072685,85.677063 39.979214,99.402748 34.883488,114.429535 
	C29.781656,129.474319 29.140556,144.934875 30.244331,160.380035 
	C30.958057,170.367233 33.212463,180.438065 36.209736,190.023224 
	C40.780251,204.639542 48.611423,217.582184 58.598938,229.402054 
	C69.770325,242.622971 83.258125,252.457870 98.608253,259.978149 
	C110.432022,265.770813 123.018265,269.590149 136.051132,270.720184 
	C146.075455,271.589355 156.361450,271.296600 166.358002,270.088379 
	C175.668167,268.963104 184.749741,265.946503 194.597290,264.034210 
z"/>
<path fill="#2876CA" opacity="1.000000" stroke="none" 
	d="
M193.931931,263.762512 
	C184.749741,265.946503 175.668167,268.963104 166.358002,270.088379 
	C156.361450,271.296600 146.075455,271.589355 136.051132,270.720184 
	C123.018265,269.590149 110.432022,265.770813 98.608253,259.978149 
	C83.258125,252.457870 69.770325,242.622971 58.598938,229.402054 
	C48.611423,217.582184 40.780251,204.639542 36.209736,190.023224 
	C33.212463,180.438065 30.958057,170.367233 30.244331,160.380035 
	C29.140556,144.934875 29.781656,129.474319 34.883488,114.429535 
	C39.979214,99.402748 47.072685,85.677063 57.079788,73.315346 
	C67.960602,59.874336 81.294640,49.644020 96.621948,41.997913 
	C107.750160,36.446556 119.458549,32.315491 131.940308,31.051659 
	C138.175674,30.420300 144.462738,30.230276 150.732437,30.019577 
	C175.533386,29.186115 197.955414,36.663460 218.411331,50.191994 
	C243.782593,66.971298 259.992523,90.762878 267.631958,119.816566 
	C273.579437,142.435516 272.642670,165.462997 265.901184,188.046051 
	C265.435791,189.605011 264.606323,191.055283 263.500732,192.790466 
	C256.066528,184.998535 248.154922,178.252716 238.030441,174.521698 
	C242.422775,159.044586 242.155807,143.830124 237.926117,128.827042 
	C229.275940,98.144211 209.674774,77.391380 179.857269,66.238823 
	C177.485825,65.351845 175.087509,64.333351 173.535583,67.644493 
	C170.798340,73.484619 173.555740,80.523666 179.569916,83.159416 
	C200.942139,92.525887 215.165726,108.336403 222.208572,130.605347 
	C226.552139,144.339432 225.953384,158.161270 222.636108,172.065506 
	C217.620911,172.830246 212.950226,173.201065 208.486572,174.365585 
	C180.617386,181.636444 163.865585,213.934952 176.578033,242.280548 
	C180.521393,251.073242 187.014832,257.519989 193.931931,263.762512 
M160.644653,107.741989 
	C159.778137,106.607704 158.385300,105.568275 158.160049,104.318420 
	C157.752762,102.058495 157.904663,99.663139 158.069550,97.341843 
	C158.430588,92.258995 155.497391,91.134117 151.209656,91.121765 
	C144.166443,91.101463 142.654022,91.945709 142.409393,96.929253 
	C142.248840,100.199745 142.379074,103.484512 142.379074,106.254822 
	C138.447418,107.625870 135.200073,108.470009 132.203247,109.855896 
	C122.092178,114.531754 117.272942,123.040932 117.998520,134.463959 
	C118.629486,144.397461 123.997963,150.687714 134.976456,154.173325 
	C137.504135,154.975861 140.126587,155.490021 142.719238,156.075684 
	C148.387436,157.356064 154.241028,158.086273 159.697464,159.971558 
	C168.336990,162.956665 170.168167,173.445831 163.524628,179.671143 
	C154.111404,188.491791 136.278046,184.250290 132.244522,172.096024 
	C131.303970,169.261826 129.939789,167.857544 126.952080,168.006821 
	C124.957222,168.106491 122.953407,168.032578 120.953621,168.026352 
	C117.190063,168.014633 115.930862,169.899658 116.639145,173.489304 
	C118.653404,183.697845 124.642815,190.472198 134.336792,194.001617 
	C137.093033,195.005127 139.962814,195.696732 142.962463,196.585251 
	C142.962463,200.113861 143.044266,203.436600 142.941040,206.753586 
	C142.821106,210.607910 144.747925,212.224335 148.419388,212.171951 
	C149.752289,212.152939 151.095505,212.068649 152.417130,212.193329 
	C157.084503,212.633545 158.703735,210.160080 158.640259,205.918152 
	C158.593353,202.783478 158.631042,199.647552 158.631042,197.066620 
	C163.455109,194.889847 167.986282,193.488205 171.805420,190.995590 
	C181.425598,184.716873 184.857697,175.541672 183.221191,164.221039 
	C181.684830,153.593079 174.660797,148.559509 165.169922,145.975418 
	C161.810410,145.060715 158.321915,144.630844 154.917969,143.865509 
	C149.905167,142.738464 144.684647,142.082169 139.971725,140.184509 
	C133.470337,137.566711 132.047867,128.767548 136.426971,123.312599 
	C140.983566,117.636574 159.684799,116.227020 163.689362,125.928009 
	C166.241257,132.109924 170.360458,132.305374 175.529877,131.993698 
	C179.979126,131.725449 181.283905,130.295319 180.129227,126.041771 
	C177.499237,116.353416 171.180893,110.339554 160.644653,107.741989 
M104.852768,92.328590 
	C109.841904,89.346466 114.664612,86.027901 119.858078,83.458855 
	C128.241653,79.311760 128.344757,79.520180 127.972649,70.484421 
	C127.774544,65.673981 126.213623,64.552185 121.754265,66.015404 
	C73.408577,81.878738 47.644611,135.171021 65.519913,182.878708 
	C75.515831,209.557022 94.214607,227.673431 121.135010,237.084671 
	C122.859909,237.687668 126.144051,237.345383 127.042564,236.171753 
	C130.423615,231.755432 127.568054,223.408737 122.398712,221.195282 
	C68.739815,198.219376 59.051495,129.478317 104.852768,92.328590 
z"/>
<path fill="#0252FD" opacity="1.000000" stroke="none" 
	d="
M194.264618,263.898346 
	C187.014832,257.519989 180.521393,251.073242 176.578033,242.280548 
	C163.865585,213.934952 180.617386,181.636444 208.486572,174.365585 
	C212.950226,173.201065 217.620911,172.830246 223.041199,172.094421 
	C228.536148,173.013458 233.185776,173.930603 237.835403,174.847748 
	C248.154922,178.252716 256.066528,184.998535 263.358856,193.170303 
	C269.144440,202.754578 272.185333,212.620743 272.155304,223.847168 
	C272.100555,244.316010 256.164429,265.903748 234.288330,270.787109 
	C220.343704,273.899994 206.751526,272.596985 194.264618,263.898346 
M237.904816,220.018860 
	C221.499741,220.018860 205.094666,220.018860 188.689575,220.018860 
	C188.689438,220.343246 188.689285,220.667633 188.689133,220.992020 
	C205.418945,220.992020 222.148773,220.992020 239.041672,221.872650 
	C239.690338,225.281265 237.486938,225.082718 235.182053,225.076309 
	C219.208328,225.031937 203.234421,225.052933 187.245041,225.052933 
	C188.157486,243.616837 204.713348,257.879028 223.329269,257.130829 
	C241.841888,256.386780 257.970215,241.357224 256.956940,220.900452 
	C255.942719,200.424286 241.954147,187.287796 221.454437,187.029785 
	C203.663818,186.805878 187.304062,202.442352 187.406403,219.093628 
	C202.873856,219.093628 218.346085,219.065887 233.817886,219.133682 
	C235.486237,219.140976 237.152130,219.702652 237.904816,220.018860 
z"/>
<path fill="#FBFCFE" opacity="1.000000" stroke="none" 
	d="
M161.048172,107.819839 
	C171.180893,110.339554 177.499237,116.353416 180.129227,126.041771 
	C181.283905,130.295319 179.979126,131.725449 175.529877,131.993698 
	C170.360458,132.305374 166.241257,132.109924 163.689362,125.928009 
	C159.684799,116.227020 140.983566,117.636574 136.426971,123.312599 
	C132.047867,128.767548 133.470337,137.566711 139.971725,140.184509 
	C144.684647,142.082169 149.905167,142.738464 154.917969,143.865509 
	C158.321915,144.630844 161.810410,145.060715 165.169922,145.975418 
	C174.660797,148.559509 181.684830,153.593079 183.221191,164.221039 
	C184.857697,175.541672 181.425598,184.716873 171.805420,190.995590 
	C167.986282,193.488205 163.455109,194.889847 158.631042,197.066620 
	C158.631042,199.647552 158.593353,202.783478 158.640259,205.918152 
	C158.703735,210.160080 157.084503,212.633545 152.417130,212.193329 
	C151.095505,212.068649 149.752289,212.152939 148.419388,212.171951 
	C144.747925,212.224335 142.821106,210.607910 142.941040,206.753586 
	C143.044266,203.436600 142.962463,200.113861 142.962463,196.585251 
	C139.962814,195.696732 137.093033,195.005127 134.336792,194.001617 
	C124.642815,190.472198 118.653404,183.697845 116.639145,173.489304 
	C115.930862,169.899658 117.190063,168.014633 120.953621,168.026352 
	C122.953407,168.032578 124.957222,168.106491 126.952080,168.006821 
	C129.939789,167.857544 131.303970,169.261826 132.244522,172.096024 
	C136.278046,184.250290 154.111404,188.491791 163.524628,179.671143 
	C170.168167,173.445831 168.336990,162.956665 159.697464,159.971558 
	C154.241028,158.086273 148.387436,157.356064 142.719238,156.075684 
	C140.126587,155.490021 137.504135,154.975861 134.976456,154.173325 
	C123.997963,150.687714 118.629486,144.397461 117.998520,134.463959 
	C117.272942,123.040932 122.092178,114.531754 132.203247,109.855896 
	C135.200073,108.470009 138.447418,107.625870 142.379074,106.254822 
	C142.379074,103.484512 142.248840,100.199745 142.409393,96.929253 
	C142.654022,91.945709 144.166443,91.101463 151.209656,91.121765 
	C155.497391,91.134117 158.430588,92.258995 158.069550,97.341843 
	C157.904663,99.663139 157.752762,102.058495 158.160049,104.318420 
	C158.385300,105.568275 159.778137,106.607704 161.048172,107.819839 
z"/>
<path fill="#FCFDFE" opacity="1.000000" stroke="none" 
	d="
M104.576645,92.556358 
	C59.051495,129.478317 68.739815,198.219376 122.398712,221.195282 
	C127.568054,223.408737 130.423615,231.755432 127.042564,236.171753 
	C126.144051,237.345383 122.859909,237.687668 121.135010,237.084671 
	C94.214607,227.673431 75.515831,209.557022 65.519913,182.878708 
	C47.644611,135.171021 73.408577,81.878738 121.754265,66.015404 
	C126.213623,64.552185 127.774544,65.673981 127.972649,70.484421 
	C128.344757,79.520180 128.241653,79.311760 119.858078,83.458855 
	C114.664612,86.027901 109.841904,89.346466 104.576645,92.556358 
z"/>
<path fill="#FBFDFE" opacity="1.000000" stroke="none" 
	d="
M238.030441,174.521698 
	C233.185776,173.930603 228.536148,173.013458 223.481430,172.067413 
	C225.953384,158.161270 226.552139,144.339432 222.208572,130.605347 
	C215.165726,108.336403 200.942139,92.525887 179.569916,83.159416 
	C173.555740,80.523666 170.798340,73.484619 173.535583,67.644493 
	C175.087509,64.333351 177.485825,65.351845 179.857269,66.238823 
	C209.674774,77.391380 229.275940,98.144211 237.926117,128.827042 
	C242.155807,143.830124 242.422775,159.044586 238.030441,174.521698 
z"/>
<path fill="#FDFEFF" opacity="1.000000" stroke="none" 
	d="
M238.819168,220.007172 
	C237.152130,219.702652 235.486237,219.140976 233.817886,219.133682 
	C218.346085,219.065887 202.873856,219.093628 187.406403,219.093628 
	C187.304062,202.442352 203.663818,186.805878 221.454437,187.029785 
	C241.954147,187.287796 255.942719,200.424286 256.956940,220.900452 
	C257.970215,241.357224 241.841888,256.386780 223.329269,257.130829 
	C204.713348,257.879028 188.157486,243.616837 187.245041,225.052933 
	C203.234421,225.052933 219.208328,225.031937 235.182053,225.076309 
	C237.486938,225.082718 239.690338,225.281265 239.022659,221.181458 
	C238.942154,220.329239 238.880661,220.168198 238.819168,220.007172 
z"/>
<path fill="#003EFF" opacity="1.000000" stroke="none" 
	d="
M238.362000,220.013016 
	C238.880661,220.168198 238.942154,220.329239 238.941116,220.741150 
	C222.148773,220.992020 205.418945,220.992020 188.689133,220.992020 
	C188.689285,220.667633 188.689438,220.343246 188.689575,220.018860 
	C205.094666,220.018860 221.499741,220.018860 238.362000,220.013016 
z"/>
</svg>