<?xml version="1.0" encoding="UTF-8"?>
<svg width="32" height="32" viewBox="0 0 32 32" fill="none" xmlns="http://www.w3.org/2000/svg">
  <circle cx="16" cy="16" r="16" fill="#FF0420"/>
  <path d="M16 7C11.0294 7 7 11.0294 7 16C7 20.9706 11.0294 25 16 25C20.9706 25 25 20.9706 25 16C25 11.0294 20.9706 7 16 7ZM16 22.4C12.4647 22.4 9.6 19.5353 9.6 16C9.6 12.4647 12.4647 9.6 16 9.6C19.5353 9.6 22.4 12.4647 22.4 16C22.4 19.5353 19.5353 22.4 16 22.4Z" fill="white"/>
  <path d="M16 12L20 16L16 20L12 16L16 12Z" fill="white"/>
</svg> 